<?xml version="1.0" encoding="utf-8"?>
<!-- Generator: Adobe Illustrator 16.0.0, SVG Export Plug-In . SVG Version: 6.00 Build 0)  -->
<!DOCTYPE svg PUBLIC "-//W3C//DTD SVG 1.1//EN" "http://www.w3.org/Graphics/SVG/1.1/DTD/svg11.dtd">
<svg version="1.1" xmlns="http://www.w3.org/2000/svg" xmlns:xlink="http://www.w3.org/1999/xlink" x="0px" y="0px" width="700px"
	 height="192.869px" viewBox="0 0 700 192.869" enable-background="new 0 0 700 192.869" xml:space="preserve">
<g id="blue_back">
	<rect fill="#237EC2" width="700" height="192.869"/>
</g>
<g id="things">
	<g>
		<rect x="246.779" y="43.631" fill="#A0003A" width="78.389" height="104.257"/>
		<text transform="matrix(1 0 0 1 266.1118 84.7842)"><tspan x="0" y="0" fill="#FFFFFF" font-family="'Helvetica-Bold'" font-size="9.4066">SEARCH </tspan><tspan x="4.18" y="11.288" fill="#FFFFFF" font-family="'Helvetica-Bold'" font-size="9.4066">INSIDE </tspan><tspan x="-5.749" y="22.576" fill="#FFFFFF" font-family="'Helvetica-Bold'" font-size="9.4066">YOURSELF</tspan></text>
		<path fill="#FFFFFF" d="M325.167,147.888"/>
		<path fill="#FFFFFF" d="M332.222,38.731"/>
		<polygon fill="#FFFFFF" points="246.779,43.631 256.185,38.731 332.222,38.731 332.222,143.185 325.167,147.888 325.167,43.631 		
			"/>
		<path fill="#A0003A" d="M258.932,39.947"/>
		<polyline fill="#A0003A" points="246.779,43.631 251.874,43.631 258.932,39.947 332.222,39.947 332.222,38.731 256.185,38.731 		
			"/>
		<rect x="330.981" y="39.947" fill="#A0003A" width="1.241" height="103.271"/>
	</g>
	<g>
		<g>
			<circle fill="#FFFFFF" cx="401.5" cy="93.31" r="25"/>
			<circle fill="#FFFFFF" cx="447" cy="93.31" r="25"/>
		</g>
		<circle fill="#231F20" cx="401.5" cy="93.31" r="9"/>
		<circle fill="#231F20" cx="447" cy="93.31" r="9"/>
	</g>
	<path opacity="0.2" fill="#FFFFFF" d="M410.5,81.138c0,0-10.334,29.166-20.334,29.5l24.333-7.5"/>
	<path opacity="0.2" fill="#FFFFFF" d="M458.334,80.763c0,0-10.334,29.166-20.334,29.5l24.333-7.5"/>
	
		<rect x="369.835" y="59.103" transform="matrix(0.9997 -0.0256 0.0256 0.9997 -1.5199 10.1569)" fill="#231F20" width="52.165" height="10.667"/>
	
		<rect x="429.168" y="59.103" transform="matrix(0.9921 0.1255 -0.1255 0.9921 11.6852 -56.6214)" fill="#231F20" width="52.165" height="10.667"/>
</g>
</svg>
