<?xml version="1.0" encoding="utf-8"?>
<!-- Generator: Adobe Illustrator 16.0.0, SVG Export Plug-In . SVG Version: 6.00 Build 0)  -->
<!DOCTYPE svg PUBLIC "-//W3C//DTD SVG 1.1//EN" "http://www.w3.org/Graphics/SVG/1.1/DTD/svg11.dtd">
<svg version="1.1" id="Layer_1" xmlns="http://www.w3.org/2000/svg" xmlns:xlink="http://www.w3.org/1999/xlink" x="0px" y="0px"
	 width="700px" height="192.869px" viewBox="0 0 700 192.869" enable-background="new 0 0 700 192.869" xml:space="preserve">
<rect x="-1" y="-0.5" fill="#237EC2" width="700" height="193.369"/>
<g>
	<g>
		<ellipse opacity="0.3" fill="#FFFFFF" cx="253.035" cy="148.125" rx="56.555" ry="7.576"/>
		<g>
			<polygon fill="#FFFFFF" points="253.035,58.938 212.077,58.938 224.342,148.125 253.035,148.125 281.728,148.125 293.994,58.938 
							"/>
			<path fill="#9FBCCD" d="M295.205,56.83h-1.211l-4.444-15.014h-36.515H216.52l-4.443,15.014h-1.212
				c-1.205,0-2.181,0.96-2.181,2.145s0.976,2.145,2.181,2.145h84.34c1.205,0,2.181-0.96,2.181-2.145S296.41,56.83,295.205,56.83z"/>
			
				<text transform="matrix(1.0856 0 0 1 232.8062 106.0771)" fill="#237EC2" font-family="'HelveticaNeue-CondensedBold'" font-size="37.9503">JS</text>
			<rect x="232.919" y="109.348" fill="#237EC2" width="40.231" height="4.848"/>
		</g>
	</g>
	<polyline opacity="0.1" points="293.693,61.119 224.342,148.125 281.728,148.125 	"/>
</g>
<g>
	<g>
		<g>
			<path fill="#FFFFFF" d="M371.268,161.449c1.277-5.557,2.76-11.639,6.592-16.046c4.429-5.092,9.856,0.107,13.522,3.308
				c3.076,2.688,7.265,6.23,11.691,5.453c5.588-0.982,7.458-6.436,9.456-11.056c1.151-2.662,3.12-7.893,6.478-8.243
				c2.316-0.242,4.771,2.818,6.195,4.28c3.28,3.364,6.031,6.881,10.045,9.419c7.715,4.879,14.458,1.25,15.738-7.53
				c0.459-3.153-4.358-4.511-4.822-1.33c-2.119,14.542-14.759-1.578-19.202-5.863c-2.326-2.243-6.056-4.852-9.505-3.795
				c-5.354,1.641-7.814,7.233-9.871,11.987c-1.27,2.937-2.636,7.945-6.848,7.003c-3.041-0.68-5.756-3.801-8.015-5.781
				c-3.236-2.835-6.875-5.255-11.347-5.026c-9.78,0.499-13.225,14.475-14.931,21.889
				C365.724,163.258,370.544,164.592,371.268,161.449L371.268,161.449z"/>
		</g>
	</g>
	<g>
		
			<rect x="442.097" y="69.241" transform="matrix(0.6491 -0.7607 0.7607 0.6491 113.1778 406.0963)" fill="#FBB040" width="109.277" height="22.279"/>
		<polygon fill="#FFFFFF" points="452.798,114.716 447.433,138.167 469.747,129.176 		"/>
		<path d="M458.475,133.718c-0.964-1.416-2.221-2.827-3.732-4.118c-1.512-1.29-3.104-2.31-4.654-3.038l-2.655,11.604
			L458.475,133.718z"/>
	</g>
	<polygon opacity="0.2" fill="#FFFFFF" points="523.725,31.584 469.747,129.176 540.674,46.045 	"/>
	<g>
		<g>
			<path fill="#FFFFFF" d="M365.986,132.91c1.278-5.556,2.76-11.638,6.592-16.046c4.429-5.092,9.855,0.107,13.521,3.308
				c3.076,2.687,7.266,6.229,11.692,5.452c5.588-0.981,7.457-6.434,9.455-11.055c1.151-2.663,3.121-7.893,6.479-8.244
				c2.315-0.242,4.77,2.819,6.194,4.28c3.28,3.365,6.032,6.882,10.045,9.419c7.715,4.879,14.459,1.25,15.739-7.53
				c0.459-3.152-4.358-4.51-4.822-1.329c-2.12,14.541-14.759-1.579-19.203-5.864c-2.326-2.243-6.056-4.852-9.506-3.794
				c-5.354,1.641-7.813,7.234-9.87,11.988c-1.27,2.936-2.635,7.943-6.847,7.003c-3.042-0.679-5.756-3.802-8.016-5.781
				c-3.236-2.836-6.874-5.255-11.346-5.027c-9.78,0.5-13.225,14.476-14.931,21.89C360.442,134.719,365.263,136.052,365.986,132.91
				L365.986,132.91z"/>
		</g>
	</g>
	<g>
		<g>
			<path fill="#FFFFFF" d="M357.084,104.49c1.277-5.556,2.76-11.638,6.592-16.046c4.429-5.092,9.856,0.107,13.522,3.309
				c3.076,2.686,7.265,6.229,11.691,5.452c5.588-0.98,7.458-6.434,9.456-11.055c1.151-2.663,3.12-7.894,6.478-8.244
				c2.316-0.242,4.771,2.819,6.195,4.28c3.28,3.365,6.031,6.881,10.045,9.419c7.715,4.878,14.458,1.25,15.738-7.53
				c0.459-3.152-4.358-4.51-4.822-1.329c-2.119,14.542-14.759-1.579-19.202-5.864c-2.326-2.243-6.056-4.852-9.505-3.794
				c-5.354,1.641-7.814,7.234-9.871,11.988c-1.27,2.937-2.636,7.944-6.848,7.003c-3.041-0.68-5.755-3.802-8.015-5.781
				c-3.237-2.835-6.875-5.255-11.347-5.026c-9.78,0.499-13.225,14.475-14.931,21.89C351.54,106.299,356.36,107.631,357.084,104.49
				L357.084,104.49z"/>
		</g>
	</g>
</g>
</svg>
