<?xml version="1.0" encoding="utf-8"?>
<!-- Generator: Adobe Illustrator 16.0.0, SVG Export Plug-In . SVG Version: 6.00 Build 0)  -->
<!DOCTYPE svg PUBLIC "-//W3C//DTD SVG 1.1//EN" "http://www.w3.org/Graphics/SVG/1.1/DTD/svg11.dtd">
<svg version="1.1" id="Layer_1" xmlns="http://www.w3.org/2000/svg" xmlns:xlink="http://www.w3.org/1999/xlink" x="0px" y="0px"
	 width="700px" height="192.869px" viewBox="0 0 700 192.869" enable-background="new 0 0 700 192.869" xml:space="preserve">
<rect x="-1" fill="#237EC2" width="701.167" height="193.369"/>
<ellipse opacity="0.1" fill="#FFFFFF" cx="495.334" cy="132.185" rx="122.75" ry="8.375"/>
<g>
	<path fill="#D8D9DA" d="M589.502,130.185c0,1.1-0.9,2-2,2H401.168c-1.101,0-2-0.9-2-2v-3.917c0-1.1,0.899-2,2-2h186.334
		c1.1,0,2,0.9,2,2V130.185z"/>
</g>
<rect x="573.896" y="126.966" fill="#888A8C" width="8.438" height="0.938"/>
<rect x="482.084" y="123.886" fill="#E6E7E8" width="26.5" height="4.018"/>
<g>
	<path fill="#80D2E8" d="M570.348,118.935c0,1.65-1.35,3-3,3h-143c-1.65,0-3-1.35-3-3v-79c0-1.65,1.35-3,3-3h143c1.65,0,3,1.35,3,3
		V118.935z"/>
	<path fill="none" stroke="#000000" stroke-width="5" stroke-miterlimit="10" d="M570.348,118.935c0,1.65-1.35,3-3,3h-143
		c-1.65,0-3-1.35-3-3v-79c0-1.65,1.35-3,3-3h143c1.65,0,3,1.35,3,3V118.935z"/>
</g>
<circle fill="#FFFFFF" cx="495.334" cy="36.935" r="0.514"/>
<rect x="160.833" y="35.851" fill="#FFFFFF" width="87.333" height="121.668"/>
<rect x="168.167" y="42.518" fill="#E2E3E4" width="72.667" height="17.334"/>
<rect x="168.167" y="63.684" fill="#E2E3E4" width="22.333" height="83.167"/>
<rect x="194.5" y="63.684" fill="#E2E3E4" width="46.333" height="8.834"/>
<rect x="194.5" y="76.518" fill="#E2E3E4" width="46.333" height="15.667"/>
<rect x="194.5" y="95.185" fill="#E2E3E4" width="46.333" height="51.667"/>
<polyline opacity="0.1" fill="#231F20" points="248.167,35.851 160.833,157.519 248.167,157.519 "/>
<g id="Arrow_26">
	<rect x="299.515" y="71.185" fill="none" width="73.069" height="42"/>
	<g>
		<polygon fill="#FFFFFF" points="320.474,103.335 336.096,103.335 336.096,110.736 351.625,96.434 336.096,82.132 336.096,89.535 
			320.474,89.535 		"/>
	</g>
</g>
<polyline opacity="0.1" fill="#FFFFFF" points="567.5,39.268 424.167,119.268 567.5,119.268 "/>
</svg>
