<?xml version="1.0" encoding="utf-8"?>
<!-- Generator: Adobe Illustrator 16.0.0, SVG Export Plug-In . SVG Version: 6.00 Build 0)  -->
<!DOCTYPE svg PUBLIC "-//W3C//DTD SVG 1.1//EN" "http://www.w3.org/Graphics/SVG/1.1/DTD/svg11.dtd">
<svg version="1.1" id="Layer_1" xmlns="http://www.w3.org/2000/svg" xmlns:xlink="http://www.w3.org/1999/xlink" x="0px" y="0px"
	 width="700px" height="192.869px" viewBox="0 0 700 192.869" enable-background="new 0 0 700 192.869" xml:space="preserve">
<rect x="-1" y="-0.5" fill="#FF9100" width="700" height="193.369"/>
<g>
	<g>
		<ellipse opacity="0.3" fill="#FFFFFF" enable-background="new    " cx="350" cy="145.551" rx="56.555" ry="7.576"/>
		<g>
			<polygon fill="#FFFFFF" points="350,56.364 309.042,56.364 321.307,145.551 350,145.551 378.692,145.551 390.959,56.364 			"/>
			<path fill="#9FBCCD" d="M392.17,54.256h-1.211l-4.444-15.014H350h-36.515l-4.443,15.014h-1.212c-1.205,0-2.181,0.96-2.181,2.145
				s0.976,2.145,2.181,2.145h84.34c1.205,0,2.181-0.96,2.181-2.145S393.375,54.256,392.17,54.256z"/>
			
				<text transform="matrix(1.0856 0 0 1 329.7715 103.5029)" fill="#237EC2" font-family="'HelveticaNeue-CondensedBold'" font-size="37.9503">JS</text>
			<rect x="329.884" y="106.774" fill="#237EC2" width="40.23" height="4.848"/>
		</g>
	</g>
	<polyline opacity="0.1" enable-background="new    " points="390.657,58.545 321.307,145.551 378.692,145.551 	"/>
</g>
<text transform="matrix(1 0 0 1 63.5 108.1973)" fill="#FFFFFF" font-family="'AmericanTypewriter'" font-size="50">[ ] { } ( )</text>
<text transform="matrix(1 0 0 1 429.5 108.1973)" fill="#FFFFFF" font-family="'AmericanTypewriter'" font-size="50">( ) { } [ ]</text>
</svg>
