<?xml version="1.0" encoding="utf-8"?>
<!-- Generator: Adobe Illustrator 16.0.0, SVG Export Plug-In . SVG Version: 6.00 Build 0)  -->
<!DOCTYPE svg PUBLIC "-//W3C//DTD SVG 1.1//EN" "http://www.w3.org/Graphics/SVG/1.1/DTD/svg11.dtd">
<svg version="1.1" id="Layer_1" xmlns="http://www.w3.org/2000/svg" xmlns:xlink="http://www.w3.org/1999/xlink" x="0px" y="0px"
	 width="500px" height="500px" viewBox="0 0 500 500" enable-background="new 0 0 500 500" xml:space="preserve">
<g>
	<path fill="#007FCF" d="M250,35.486C131.527,35.486,35.486,131.527,35.486,250c0,118.473,96.041,214.514,214.514,214.514
		c118.473,0,214.514-96.041,214.514-214.514C464.514,131.527,368.473,35.486,250,35.486z M250,452.514
		c-111.845,0-202.514-90.668-202.514-202.514c0-111.845,90.668-202.514,202.514-202.514c111.846,0,202.514,90.668,202.514,202.514
		C452.514,361.846,361.846,452.514,250,452.514z"/>
	<circle fill="#007FCF" cx="250" cy="250" r="187.971"/>
</g>
<rect x="195.336" y="299.016" fill="#007FCF" width="109.328" height="13.172"/>
<circle fill="#FF9100" cx="250" cy="250" r="111.167"/>
<path fill="#FFFFFF" d="M325.167,238.5c-10.667-39.333-98-58-98-58c-25.333,68.667-88.334,69.5-88.334,69.5
	c0,61.396,49.771,111.167,111.167,111.167c61.396,0,111.167-49.771,111.167-111.167c0-7.337-0.719-14.506-2.075-21.446
	C348.409,223.974,325.167,238.5,325.167,238.5z"/>
<path stroke="#000000" stroke-width="8" stroke-miterlimit="10" d="M197.456,303.134c0,0,56.375,68.513,105.088,0H197.456z"/>
<path fill="#FFFFFF" stroke="#000000" stroke-width="6" stroke-miterlimit="10" d="M184.5,257.5c0,0,24.5-13.5,43.5,0"/>
<path fill="#FFFFFF" stroke="#000000" stroke-width="6" stroke-miterlimit="10" d="M262.25,257.5c0,0,24.5-13.5,43.5,0"/>
</svg>
