<?xml version="1.0" encoding="utf-8"?>
<!-- Generator: Adobe Illustrator 16.0.0, SVG Export Plug-In . SVG Version: 6.00 Build 0)  -->
<!DOCTYPE svg PUBLIC "-//W3C//DTD SVG 1.1//EN" "http://www.w3.org/Graphics/SVG/1.1/DTD/svg11.dtd">
<svg version="1.1" id="Layer_1" xmlns="http://www.w3.org/2000/svg" xmlns:xlink="http://www.w3.org/1999/xlink" x="0px" y="0px"
	 width="500px" height="500px" viewBox="0 0 500 500" enable-background="new 0 0 500 500" xml:space="preserve">
<g>
	<path fill="#007FCF" d="M250,35.486C131.527,35.486,35.486,131.527,35.486,250c0,118.473,96.041,214.514,214.514,214.514
		c118.473,0,214.514-96.041,214.514-214.514C464.514,131.527,368.473,35.486,250,35.486z M250,452.514
		c-111.845,0-202.514-90.668-202.514-202.514c0-111.845,90.668-202.514,202.514-202.514c111.846,0,202.514,90.668,202.514,202.514
		C452.514,361.846,361.846,452.514,250,452.514z"/>
	<circle fill="#007FCF" cx="250" cy="250" r="187.971"/>
</g>
<polygon fill="#FFFFFF" points="250,162.027 138.697,162.027 172.028,404.392 250,404.392 327.972,404.392 361.304,162.027 "/>
<path fill="#9EBBCD" d="M364.597,156.298h-3.293L349.228,115.5H250h-99.228l-12.075,40.798h-3.293c-3.274,0-5.927,2.609-5.927,5.828
	s2.653,5.828,5.927,5.828h229.193c3.273,0,5.927-2.609,5.927-5.828S367.87,156.298,364.597,156.298z"/>
<text transform="matrix(1.0856 0 0 1 195.0269 290.127)" fill="#007FCF" font-family="'HelveticaNeue-CondensedBold'" font-size="103.129">JS</text>
<rect x="195.336" y="299.016" fill="#007FCF" width="109.328" height="13.172"/>
</svg>
