<?xml version="1.0" encoding="utf-8"?>
<!-- Generator: Adobe Illustrator 16.0.0, SVG Export Plug-In . SVG Version: 6.00 Build 0)  -->
<!DOCTYPE svg PUBLIC "-//W3C//DTD SVG 1.1//EN" "http://www.w3.org/Graphics/SVG/1.1/DTD/svg11.dtd">
<svg version="1.1" id="Layer_1" xmlns="http://www.w3.org/2000/svg" xmlns:xlink="http://www.w3.org/1999/xlink" x="0px" y="0px"
	 width="500px" height="500px" viewBox="0 0 500 500" enable-background="new 0 0 500 500" xml:space="preserve">
<rect fill="#007FCF" width="500" height="500"/>
<g>
	<polygon fill="#FFFFFF" points="250,143.027 138.697,143.027 172.028,385.392 250,385.392 327.973,385.392 361.305,143.027 	"/>
	<path fill="#9EBBCD" d="M364.598,137.298h-3.293L349.229,96.5H250h-99.228l-12.075,40.798h-3.293c-3.274,0-5.927,2.609-5.927,5.828
		c0,3.219,2.653,5.828,5.927,5.828h229.194c3.272,0,5.926-2.609,5.926-5.828C370.523,139.907,367.87,137.298,364.598,137.298z"/>
	
		<text transform="matrix(1.0856 0 0 1 195.0273 271.127)" fill="#007FCF" font-family="'HelveticaNeue-CondensedBold'" font-size="103.129">JS</text>
	<rect x="195.336" y="280.016" fill="#007FCF" width="109.328" height="13.172"/>
</g>
</svg>
