<?xml version="1.0" encoding="utf-8"?>
<!-- Generator: Adobe Illustrator 16.0.0, SVG Export Plug-In . SVG Version: 6.00 Build 0)  -->
<!DOCTYPE svg PUBLIC "-//W3C//DTD SVG 1.1//EN" "http://www.w3.org/Graphics/SVG/1.1/DTD/svg11.dtd">
<svg version="1.1" id="Layer_1" xmlns="http://www.w3.org/2000/svg" xmlns:xlink="http://www.w3.org/1999/xlink" x="0px" y="0px"
	 width="500px" height="500px" viewBox="0 0 500 500" enable-background="new 0 0 500 500" xml:space="preserve">
<g>
	<path fill="#27AAE1" d="M250,35.486C131.527,35.486,35.486,131.527,35.486,250S131.527,464.514,250,464.514
		S464.514,368.473,464.514,250S368.473,35.486,250,35.486z M250,452.514c-111.845,0-202.514-90.668-202.514-202.514
		c0-111.845,90.668-202.514,202.514-202.514c111.846,0,202.514,90.668,202.514,202.514C452.514,361.846,361.846,452.514,250,452.514
		z"/>
	<circle fill="#27AAE1" cx="250" cy="250" r="187.971"/>
</g>
<g>
	<path fill="#FFFFFF" d="M123.916,191.668h37.772l37.342,42.219l37.127-42.219h37.772v110h-45.712v-39.58L199.03,295.07
		l-29.402-32.982v39.58h-45.712V191.668z"/>
	<path fill="#FFFFFF" d="M288.952,191.668h47.643v81.14h39.489v28.86h-87.132V191.668z"/>
</g>
</svg>
